<?xml version="1.0" encoding="UTF-8"?>
<svg width="1e3" height="1e3" version="1.1" viewBox="0 0 264.58 264.58" xmlns="http://www.w3.org/2000/svg" xmlns:cc="http://creativecommons.org/ns#" xmlns:dc="http://purl.org/dc/elements/1.1/" xmlns:rdf="http://www.w3.org/1999/02/22-rdf-syntax-ns#">
 <metadata>
  <rdf:RDF>
   <cc:Work rdf:about="">
    <dc:format>image/svg+xml</dc:format>
    <dc:type rdf:resource="http://purl.org/dc/dcmitype/StillImage"/>
    <dc:title/>
   </cc:Work>
  </rdf:RDF>
 </metadata>
 <g transform="translate(-1.1372 -41.487)">
  <g>
   <g transform="matrix(5.9411 0 0 5.9411 -156.16 -144.9)">
    <g transform="matrix(1.1171 0 0 1.1171 -226.17 -14.098)">
     <path d="m236 46.298v0.0075a5.5489 1.4612 0 0 1 8.1e-4 -0.0075zm11.092 0a5.5489 1.4612 0 0 1 3e-3 0.04868 5.5489 1.4612 0 0 1-5.5491 1.4611 5.5489 1.4612 0 0 1-5.5463-1.4175v28.575h2e-3a5.5475 1.4612 0 0 0 5.5455 1.4207 5.5475 1.4612 0 0 0 5.5451-1.4207h3e-3v-28.667zm-5.709 27.166a5.5475 1.4612 0 0 0-0.31224 0.0047 5.5475 1.4612 0 0 0-0.20737 0.0055 5.5475 1.4612 0 0 0-0.20222 0.0079 5.5475 1.4612 0 0 1 0.20222-0.0079 5.5475 1.4612 0 0 1 0.20737-0.0055 5.5475 1.4612 0 0 1 0.31224-0.0047zm0.47727 0.0016a5.5475 1.4612 0 0 1 0.41513 0.01029 5.5475 1.4612 0 0 0-0.41513-0.01029zm0.82591 0.02889a5.5475 1.4612 0 0 1 0.20341 0.01228 5.5475 1.4612 0 0 0-0.20341-0.01228zm0.6039 0.04274a5.5475 1.4612 0 0 1 0.19668 0.0182 5.5475 1.4612 0 0 0-0.19668-0.0182zm-3.8454 0.03522a5.5475 1.4612 0 0 0-0.27583 0.03205 5.5475 1.4612 0 0 1 0.27583-0.03205zm4.4268 0.02533a5.5475 1.4612 0 0 1 0.18797 0.02374 5.5475 1.4612 0 0 0-0.18797-0.02374zm-4.8087 0.02018a5.5475 1.4612 0 0 0-0.17254 0.02374 5.5475 1.4612 0 0 1 0.17254-0.02374zm5.0888 0.01623a5.5475 1.4612 0 0 1 0.27188 0.04076 5.5475 1.4612 0 0 1 0.17649 0.02929 5.5475 1.4612 0 0 0-0.17649-0.02929 5.5475 1.4612 0 0 0-0.27188-0.04076zm-5.6195 0.06372a5.5475 1.4612 0 0 0-0.17294 0.03087 5.5475 1.4612 0 0 0-0.16819 0.03245 5.5475 1.4612 0 0 1 0.16819-0.03245 5.5475 1.4612 0 0 1 0.17294-0.03087zm6.2397 0.03759a5.5475 1.4612 0 0 1 0.39495 0.08152 5.5475 1.4612 0 0 0-0.39495-0.08152zm-6.762 0.06372a5.5475 1.4612 0 0 0-0.14088 0.03166 5.5475 1.4612 0 0 0-0.15355 0.0372 5.5475 1.4612 0 0 1 0.15355-0.0372 5.5475 1.4612 0 0 1 0.14088-0.03166zm-0.36922 0.08785a5.5475 1.4612 0 0 0-0.14524 0.03957 5.5475 1.4612 0 0 1 0.14524-0.03957zm7.8452 0.0083a5.5475 1.4612 0 0 1 0.14405 0.03957 5.5475 1.4612 0 0 0-0.14405-0.03957zm-8.1974 0.093a5.5475 1.4612 0 0 0-0.1306 0.04274 5.5475 1.4612 0 0 0-0.18402 0.06648 5.5475 1.4612 0 0 1 0.18402-0.06648 5.5475 1.4612 0 0 1 0.1306-0.04274zm9.0783 0.21212a5.5475 1.4612 0 0 1 0.0997 0.04828 5.5475 1.4612 0 0 0-0.0997-0.04828zm-9.717 0.03799a5.5475 1.4612 0 0 0-0.0946 0.04907 5.5475 1.4612 0 0 0-0.0875 0.04986 5.5475 1.4612 0 0 0-0.0799 0.05066 5.5475 1.4612 0 0 0-0.0728 0.05145 5.5475 1.4612 0 0 0-0.0954 0.07836 5.5475 1.4612 0 0 1 0.0954-0.07836 5.5475 1.4612 0 0 1 0.0728-0.05145 5.5475 1.4612 0 0 1 0.0799-0.05066 5.5475 1.4612 0 0 1 0.0875-0.04986 5.5475 1.4612 0 0 1 0.0946-0.04907zm9.9691 0.09379a5.5475 1.4612 0 0 1 0.10487 0.06648 5.5475 1.4612 0 0 0-0.10487-0.06648zm0.14168 0.09221a5.5475 1.4612 0 0 1 0.0677 0.05184 5.5475 1.4612 0 0 1 0.0601 0.05263 5.5475 1.4612 0 0 0-0.0601-0.05263 5.5475 1.4612 0 0 0-0.0677-0.05184zm-10.596 0.14642a5.5475 1.4612 0 0 1 4e-4 0 5.5475 1.4612 0 0 0-0.0245 0.02652 5.5475 1.4612 0 0 1 0.0241-0.02652zm-0.1488 0.24378a5.5475 1.4612 0 0 0-0.0119 0.05461 5.5475 1.4612 0 0 1 0.0119-0.05461zm-0.0119 0.05501a5.5475 1.4612 0 0 0-4e-3 0.05461 5.5475 1.4612 0 0 0 4e-4 0.01623 5.5475 1.4612 0 0 1-4e-4 -0.01623 5.5475 1.4612 0 0 1 4e-3 -0.05461z" fill="#e6e6e6"/>
     <path d="m247.1 46.383a5.5489 1.4612 0 0 1-5.5489 1.4612 5.5489 1.4612 0 0 1-5.5489-1.4612 5.5489 1.4612 0 0 1 5.5489-1.4612 5.5489 1.4612 0 0 1 5.5489 1.4612" fill="#b3b3b3"/>
    </g>
    <g transform="matrix(1.1171 0 0 1.1171 -226.17 -14.098)">
     <path d="m245.04 48.062v0.0076a5.5944 1.4731 0 0 1 8.2e-4 -0.0076zm11.183 0a5.5944 1.4731 0 0 1 3e-3 0.04907 5.5944 1.4731 0 0 1-5.5946 1.4731 5.5944 1.4731 0 0 1-5.5918-1.4292v28.809h2e-3a5.5929 1.4731 0 0 0 5.591 1.4324 5.5929 1.4731 0 0 0 5.5906-1.4324h3e-3v-28.902zm-5.7558 27.389a5.5929 1.4731 0 0 0-0.3148 0.0048 5.5929 1.4731 0 0 0-0.20907 0.0056 5.5929 1.4731 0 0 0-0.20387 8e-3 5.5929 1.4731 0 0 1 0.20387-8e-3 5.5929 1.4731 0 0 1 0.20907-0.0056 5.5929 1.4731 0 0 1 0.3148-0.0048zm0.48118 0.0016a5.5929 1.4731 0 0 1 0.41853 0.01038 5.5929 1.4731 0 0 0-0.41853-0.01038zm0.83268 0.02913a5.5929 1.4731 0 0 1 0.20508 0.01238 5.5929 1.4731 0 0 0-0.20508-0.01238zm0.60885 0.04309a5.5929 1.4731 0 0 1 0.1983 0.01834 5.5929 1.4731 0 0 0-0.1983-0.01834zm-3.8769 0.03551a5.5929 1.4731 0 0 0-0.27809 0.03232 5.5929 1.4731 0 0 1 0.27809-0.03232zm4.463 0.02554a5.5929 1.4731 0 0 1 0.18952 0.02394 5.5929 1.4731 0 0 0-0.18952-0.02394zm-4.8481 0.02035a5.5929 1.4731 0 0 0-0.17395 0.02394 5.5929 1.4731 0 0 1 0.17395-0.02394zm5.1306 0.01636a5.5929 1.4731 0 0 1 0.2741 0.04109 5.5929 1.4731 0 0 1 0.17795 0.02953 5.5929 1.4731 0 0 0-0.17795-0.02953 5.5929 1.4731 0 0 0-0.2741-0.04109zm-5.6656 0.06424a5.5929 1.4731 0 0 0-0.17435 0.03112 5.5929 1.4731 0 0 0-0.16957 0.03272 5.5929 1.4731 0 0 1 0.16957-0.03272 5.5929 1.4731 0 0 1 0.17435-0.03112zm6.2908 0.0379a5.5929 1.4731 0 0 1 0.39819 0.08219 5.5929 1.4731 0 0 0-0.39819-0.08219zm-6.8174 0.06424a5.5929 1.4731 0 0 0-0.14204 0.03192 5.5929 1.4731 0 0 0-0.15481 0.0375 5.5929 1.4731 0 0 1 0.15481-0.0375 5.5929 1.4731 0 0 1 0.14204-0.03192zm-0.37226 0.08857a5.5929 1.4731 0 0 0-0.14642 0.0399 5.5929 1.4731 0 0 1 0.14642-0.0399zm7.9095 0.0084a5.5929 1.4731 0 0 1 0.14523 0.0399 5.5929 1.4731 0 0 0-0.14523-0.0399zm-8.2646 0.09376a5.5929 1.4731 0 0 0-0.13167 0.04309 5.5929 1.4731 0 0 0-0.18553 0.06703 5.5929 1.4731 0 0 1 0.18553-0.06703 5.5929 1.4731 0 0 1 0.13167-0.04309zm9.1527 0.21386a5.5929 1.4731 0 0 1 0.10054 0.04868 5.5929 1.4731 0 0 0-0.10054-0.04868zm-9.7967 0.0383a5.5929 1.4731 0 0 0-0.0954 0.04948 5.5929 1.4731 0 0 0-0.0882 0.05027 5.5929 1.4731 0 0 0-0.0806 0.05107 5.5929 1.4731 0 0 0-0.0734 0.05187 5.5929 1.4731 0 0 0-0.0961 0.079 5.5929 1.4731 0 0 1 0.0961-0.079 5.5929 1.4731 0 0 1 0.0734-0.05187 5.5929 1.4731 0 0 1 0.0806-0.05107 5.5929 1.4731 0 0 1 0.0882-0.05027 5.5929 1.4731 0 0 1 0.0954-0.04948zm10.051 0.09456a5.5929 1.4731 0 0 1 0.10573 0.06703 5.5929 1.4731 0 0 0-0.10573-0.06703zm0.14284 0.09296a5.5929 1.4731 0 0 1 0.0682 0.05227 5.5929 1.4731 0 0 1 0.0607 0.05307 5.5929 1.4731 0 0 0-0.0607-0.05307 5.5929 1.4731 0 0 0-0.0682-0.05227zm-10.682 0.14763a5.5929 1.4731 0 0 1 4.1e-4 0 5.5929 1.4731 0 0 0-0.0247 0.02673 5.5929 1.4731 0 0 1 0.0243-0.02673zm-0.15002 0.24577a5.5929 1.4731 0 0 0-0.012 0.05506 5.5929 1.4731 0 0 1 0.012-0.05506zm-0.012 0.05546a5.5929 1.4731 0 0 0-4e-3 0.05506 5.5929 1.4731 0 0 0 4.1e-4 0.01636 5.5929 1.4731 0 0 1-4.1e-4 -0.01636 5.5929 1.4731 0 0 1 4e-3 -0.05506z" fill="#e6e6e6"/>
     <path d="m256.23 48.122a5.5944 1.4731 0 0 1-5.5944 1.4731 5.5944 1.4731 0 0 1-5.5944-1.4731 5.5944 1.4731 0 0 1 5.5944-1.4731 5.5944 1.4731 0 0 1 5.5944 1.4731" fill="#b3b3b3"/>
    </g>
    <g transform="matrix(1.1171 0 0 1.1171 -226.17 -14.098)">
     <path d="m246.69 46.346c-1.7876 0.05221-3.8431 0.10711-5.6152 1-0.51352 0.20462-1.1322 0.9756-0.81054 1.6367l-0.0664-0.38867c-0.0349 0.29508-7e-3 0.88802-0.0137 1.2109v0.0137c4e-3 9.6172-8e-3 19.24 6e-3 28.855v0.13864l0.0527 0.12891c0.45728 1.0979 1.7274 1.2666 2.293 1.4492l0.0352 0.01172 0.0352 0.0078c2.7573 0.58345 5.6721 0.58754 8.4297-0.05664l0.0332-0.0078 0.0332-0.01172c0.51286-0.17624 1.7449-0.38617 2.1016-1.4746l0.0332-0.10742v-0.11133c-6e-3 -10.046 0.0115-20.105-8e-3 -30.146v-0.14453l-0.0586-0.13476c-0.45298-1.0337-1.726-1.2466-2.3125-1.4336l-0.0274-0.0098-0.0254-0.0059c-1.3552-0.31718-2.7446-0.41429-4.0938-0.41992h-0.01zm-5.6152 1c6e-3 -0.0025 0.0114-0.0133 0.0176-0.01563l-0.0762 0.0332c0.0185-0.0095 0.04-0.0082 0.0586-0.01758z" fill="#201b2e"/>
     <path d="m240.88 48.528v0.0079a5.8287 1.5348 0 0 1 8.5e-4 -0.0079zm11.651 0a5.8287 1.5348 0 0 1 3e-3 0.05113 5.8287 1.5348 0 0 1-5.8288 1.5347 5.8287 1.5348 0 0 1-5.8259-1.489v30.015h2e-3a5.8271 1.5348 0 0 0 5.8251 1.4923 5.8271 1.5348 0 0 0 5.8247-1.4923h3e-3v-30.112zm-5.9968 28.536a5.8271 1.5348 0 0 0-0.32798 5e-3 5.8271 1.5348 0 0 0-0.21782 0.0058 5.8271 1.5348 0 0 0-0.21242 0.0083 5.8271 1.5348 0 0 1 0.21242-0.0083 5.8271 1.5348 0 0 1 0.21782-0.0058 5.8271 1.5348 0 0 1 0.32798-5e-3zm0.50133 0.0017a5.8271 1.5348 0 0 1 0.43606 0.01081 5.8271 1.5348 0 0 0-0.43606-0.01081zm0.86755 0.03035a5.8271 1.5348 0 0 1 0.21366 0.0129 5.8271 1.5348 0 0 0-0.21366-0.0129zm0.63435 0.04489a5.8271 1.5348 0 0 1 0.20659 0.01911 5.8271 1.5348 0 0 0-0.20659-0.01911zm-4.0393 0.037a5.8271 1.5348 0 0 0-0.28973 0.03367 5.8271 1.5348 0 0 1 0.28973-0.03367zm4.6499 0.0266a5.8271 1.5348 0 0 1 0.19745 0.02494 5.8271 1.5348 0 0 0-0.19745-0.02494zm-5.0511 0.0212a5.8271 1.5348 0 0 0-0.18124 0.02494 5.8271 1.5348 0 0 1 0.18124-0.02494zm5.3454 0.01705a5.8271 1.5348 0 0 1 0.28558 0.04281 5.8271 1.5348 0 0 1 0.1854 0.03076 5.8271 1.5348 0 0 0-0.1854-0.03076 5.8271 1.5348 0 0 0-0.28558-0.04281zm-5.9028 0.06693a5.8271 1.5348 0 0 0-0.18166 0.03242 5.8271 1.5348 0 0 0-0.17667 0.03409 5.8271 1.5348 0 0 1 0.17667-0.03409 5.8271 1.5348 0 0 1 0.18166-0.03242zm6.5542 0.03949a5.8271 1.5348 0 0 1 0.41486 0.08563 5.8271 1.5348 0 0 0-0.41486-0.08563zm-7.1029 0.06693a5.8271 1.5348 0 0 0-0.14798 0.03325 5.8271 1.5348 0 0 0-0.16129 0.03907 5.8271 1.5348 0 0 1 0.16129-0.03907 5.8271 1.5348 0 0 1 0.14798-0.03325zm-0.38784 0.09228a5.8271 1.5348 0 0 0-0.15256 0.04157 5.8271 1.5348 0 0 1 0.15256-0.04157zm8.2407 0.0087a5.8271 1.5348 0 0 1 0.15131 0.04157 5.8271 1.5348 0 0 0-0.15131-0.04157zm-8.6106 0.09769a5.8271 1.5348 0 0 0-0.13718 0.04489 5.8271 1.5348 0 0 0-0.1933 0.06984 5.8271 1.5348 0 0 1 0.1933-0.06984 5.8271 1.5348 0 0 1 0.13718-0.04489zm9.536 0.22281a5.8271 1.5348 0 0 1 0.10475 0.05072 5.8271 1.5348 0 0 0-0.10475-0.05072zm-10.207 0.03991a5.8271 1.5348 0 0 0-0.0993 0.05155 5.8271 1.5348 0 0 0-0.0919 0.05238 5.8271 1.5348 0 0 0-0.084 0.05321 5.8271 1.5348 0 0 0-0.0765 0.05404 5.8271 1.5348 0 0 0-0.10018 0.08231 5.8271 1.5348 0 0 1 0.10018-0.08231 5.8271 1.5348 0 0 1 0.0765-0.05404 5.8271 1.5348 0 0 1 0.084-0.05321 5.8271 1.5348 0 0 1 0.0919-0.05238 5.8271 1.5348 0 0 1 0.0993-0.05155zm10.472 0.09852a5.8271 1.5348 0 0 1 0.11016 0.06983 5.8271 1.5348 0 0 0-0.11016-0.06983zm0.14882 0.09686a5.8271 1.5348 0 0 1 0.0711 0.05446 5.8271 1.5348 0 0 1 0.0632 0.05529 5.8271 1.5348 0 0 0-0.0632-0.05529 5.8271 1.5348 0 0 0-0.0711-0.05446zm-11.13 0.15381a5.8271 1.5348 0 0 1 4.2e-4 0 5.8271 1.5348 0 0 0-0.0258 0.02785 5.8271 1.5348 0 0 1 0.0254-0.02785zm-0.1563 0.25606a5.8271 1.5348 0 0 0-0.0125 0.05737 5.8271 1.5348 0 0 1 0.0125-0.05737zm-0.0125 0.05778a5.8271 1.5348 0 0 0-4e-3 0.05737 5.8271 1.5348 0 0 0 4.3e-4 0.01705 5.8271 1.5348 0 0 1-4.3e-4 -0.01705 5.8271 1.5348 0 0 1 4e-3 -0.05737z" fill="#e6e6e6"/>
     <path d="m252.53 48.586a5.8287 1.5415 0 0 1-5.8287 1.5415 5.8287 1.5415 0 0 1-5.8287-1.5415 5.8287 1.5415 0 0 1 5.8287-1.5415 5.8287 1.5415 0 0 1 5.8287 1.5415" fill="#b3b3b3"/>
    </g>
   </g>
   <g transform="matrix(4.9236 0 0 5.4747 -142.03 -112.68)">
    <path d="m63.193 46.691v5.5059h-30.193v6.1465h30.193v5.5039l16.809-8.5781z" fill="#201b2e"/>
    <path d="m64.088 48.153v4.9385h-30.192v4.3577h30.192v4.9385l13.945-7.1173z" fill="#e6e6e6"/>
   </g>
  </g>
 </g>
</svg>
